<svg width="127" height="32" viewBox="0 0 127 32" fill="none" xmlns="http://www.w3.org/2000/svg">
<g clip-path="url(#clip0_9350_1050)">
<mask id="mask0_9350_1050" style="mask-type:luminance" maskUnits="userSpaceOnUse" x="0" y="1" width="30" height="30">
<path d="M30 1H0V31H30V1Z" fill="white"/>
</mask>
<g mask="url(#mask0_9350_1050)">
<path d="M9.80161 12.8036C9.36355 11.8934 9.16825 10.8854 9.23466 9.87744C9.30108 8.86948 9.62697 7.89583 10.1807 7.05099C10.7344 6.20614 11.4971 5.51881 12.3948 5.0557C13.2925 4.59259 14.2947 4.36944 15.3042 4.40791C16.3135 4.44639 17.2959 4.74519 18.1557 5.27529C19.0156 5.80539 19.7238 6.54879 20.2116 7.43332C20.6994 8.31787 20.9502 9.3135 20.9397 10.3236C20.9292 11.3337 20.6577 12.3239 20.1516 13.1981L15.4236 21.4L16.8411 23.8555L22.2831 14.4296C23.3572 12.5217 23.6355 10.2671 23.0574 8.15532C22.4793 6.04354 21.0915 4.24503 19.1955 3.15022C17.2993 2.05543 15.0478 1.75271 12.9299 2.3078C10.812 2.8629 8.99848 4.23099 7.88311 6.11506C7.29076 7.12728 6.92191 8.25456 6.80136 9.42114C6.68079 10.5877 6.8113 11.7666 7.18411 12.8786C7.56328 12.8311 7.945 12.8071 8.32711 12.8066L9.80161 12.8036Z" fill="white"/>
<path d="M28.8753 17.5738C28.2878 16.5422 27.4836 15.6501 26.5182 14.959C25.553 14.2679 24.4493 13.7941 23.2833 13.5703C23.1354 13.924 22.9656 14.2682 22.7748 14.6008L22.0338 15.8833C23.0451 15.9454 24.0231 16.2688 24.8721 16.8217C25.7211 17.3746 26.4123 18.1384 26.8779 19.0381C27.3437 19.9379 27.5681 20.9432 27.5294 21.9557C27.4905 22.9681 27.1898 23.9533 26.6565 24.8147C26.1233 25.6763 25.3758 26.3848 24.4869 26.8713C23.598 27.3576 22.5983 27.605 21.5852 27.5896C20.5721 27.5741 19.5804 27.2962 18.7068 26.783C17.8332 26.2697 17.1075 25.5388 16.6008 24.6613L11.8804 16.4863H9.04688L14.4739 25.8883C14.6605 26.2091 14.8674 26.5178 15.0933 26.8123L15.1383 26.8708C15.9113 27.8657 16.9028 28.6694 18.036 29.2198C19.1693 29.7703 20.4141 30.0525 21.6738 30.0448C23.1332 30.0447 24.5669 29.6603 25.8306 28.9306C27.0944 28.2008 28.1438 27.1513 28.8735 25.8875C29.6031 24.6236 29.9873 23.1901 29.9874 21.7307C29.9874 20.2714 29.6034 18.8377 28.8738 17.5738H28.8753Z" fill="white"/>
<path d="M13.2206 24.9488C12.6718 25.7844 11.9182 26.4656 11.0316 26.9276C10.1451 27.3894 9.15499 27.6168 8.15571 27.588C7.15642 27.5591 6.18115 27.275 5.32273 26.7626C4.46431 26.2502 3.75132 25.5266 3.25161 24.6608C2.73753 23.7701 2.4669 22.7598 2.46688 21.7313C2.46688 20.7029 2.7375 19.6926 3.25156 18.8019C3.76564 17.9111 4.50504 17.1714 5.39553 16.6569C6.286 16.1424 7.29619 15.8713 8.32461 15.8708H17.785L19.198 13.4168H8.32461C7.22344 13.402 6.1303 13.6061 5.10865 14.0173C4.08702 14.4284 3.15724 15.0385 2.37331 15.8119C1.58938 16.5854 0.966922 17.507 0.542068 18.5229C0.117216 19.539 -0.101562 20.6292 -0.101562 21.7305C-0.101562 22.8318 0.117216 23.9222 0.542068 24.9381C0.966922 25.9542 1.58938 26.8757 2.37331 27.6491C3.15724 28.4226 4.08702 29.0327 5.10865 29.4438C6.1303 29.855 7.22344 30.0591 8.32461 30.0443C9.51567 30.0513 10.694 29.7992 11.778 29.3055C12.8619 28.8119 13.8256 28.0884 14.6021 27.1853C14.3595 26.8719 14.138 26.5427 13.9391 26.1998L13.2206 24.9488Z" fill="white"/>
</g>
</g>
<path d="M38.56 25V12H41.264V13.378C41.7147 12.8407 42.265 12.416 42.915 12.104C43.5737 11.792 44.2843 11.636 45.047 11.636C45.9743 11.636 46.828 11.8613 47.608 12.312C48.388 12.754 49.0077 13.3433 49.467 14.08C49.9263 13.3433 50.5373 12.754 51.3 12.312C52.0713 11.8613 52.9207 11.636 53.848 11.636C54.81 11.636 55.6853 11.87 56.474 12.338C57.2627 12.806 57.891 13.4343 58.359 14.223C58.827 15.0117 59.061 15.887 59.061 16.849V25H56.357V17.538C56.357 16.966 56.2183 16.4417 55.941 15.965C55.6637 15.4883 55.291 15.1027 54.823 14.808C54.355 14.5133 53.835 14.366 53.263 14.366C52.691 14.366 52.171 14.5047 51.703 14.782C51.235 15.0593 50.8623 15.4363 50.585 15.913C50.3077 16.3897 50.169 16.9313 50.169 17.538V25H47.465V17.538C47.465 16.9313 47.3263 16.3897 47.049 15.913C46.7717 15.4363 46.3947 15.0593 45.918 14.782C45.45 14.5047 44.93 14.366 44.358 14.366C43.7947 14.366 43.2747 14.5133 42.798 14.808C42.33 15.1027 41.9573 15.4883 41.68 15.965C41.4027 16.4417 41.264 16.966 41.264 17.538V25H38.56ZM71.5256 12H74.2296V25H71.5126L71.4086 23.115C71.0272 23.7823 70.5116 24.3197 69.8616 24.727C69.2116 25.1343 68.4446 25.338 67.5606 25.338C66.6072 25.338 65.7102 25.1603 64.8696 24.805C64.0289 24.441 63.2879 23.9383 62.6466 23.297C62.0139 22.6557 61.5199 21.919 61.1646 21.087C60.8092 20.2463 60.6316 19.345 60.6316 18.383C60.6316 17.4557 60.8049 16.5847 61.1516 15.77C61.4982 14.9467 61.9792 14.2273 62.5946 13.612C63.2099 12.9967 63.9206 12.5157 64.7266 12.169C65.5412 11.8137 66.4122 11.636 67.3396 11.636C68.2842 11.636 69.1162 11.8527 69.8356 12.286C70.5636 12.7107 71.1659 13.2567 71.6426 13.924L71.5256 12ZM67.4956 22.725C68.2582 22.725 68.9256 22.5387 69.4976 22.166C70.0696 21.7847 70.5116 21.2733 70.8236 20.632C71.1442 19.9907 71.3046 19.28 71.3046 18.5C71.3046 17.7113 71.1442 16.9963 70.8236 16.355C70.5029 15.7137 70.0566 15.2067 69.4846 14.834C68.9212 14.4527 68.2582 14.262 67.4956 14.262C66.7416 14.262 66.0526 14.4527 65.4286 14.834C64.8046 15.2153 64.3106 15.7267 63.9466 16.368C63.5826 17.0093 63.4006 17.72 63.4006 18.5C63.4006 19.2887 63.5869 20.0037 63.9596 20.645C64.3409 21.2777 64.8392 21.7847 65.4546 22.166C66.0786 22.5387 66.7589 22.725 67.4956 22.725ZM79.5277 31.5H76.8237V12H79.5277V13.911C79.961 13.2437 80.5157 12.702 81.1917 12.286C81.8677 11.87 82.665 11.662 83.5837 11.662C84.5283 11.662 85.4123 11.8397 86.2357 12.195C87.0677 12.5503 87.7957 13.0443 88.4197 13.677C89.0437 14.301 89.5333 15.0247 89.8887 15.848C90.244 16.6713 90.4217 17.5553 90.4217 18.5C90.4217 19.4447 90.244 20.333 89.8887 21.165C89.5333 21.997 89.0437 22.7293 88.4197 23.362C87.7957 23.986 87.0677 24.4757 86.2357 24.831C85.4123 25.1863 84.5283 25.364 83.5837 25.364C82.665 25.364 81.8677 25.156 81.1917 24.74C80.5157 24.3153 79.961 23.7737 79.5277 23.115V31.5ZM83.5577 14.275C82.8037 14.275 82.1407 14.4657 81.5687 14.847C80.9967 15.2283 80.5503 15.7397 80.2297 16.381C79.909 17.0137 79.7487 17.72 79.7487 18.5C79.7487 19.28 79.909 19.9907 80.2297 20.632C80.5503 21.2733 80.9967 21.7847 81.5687 22.166C82.1407 22.5473 82.8037 22.738 83.5577 22.738C84.303 22.738 84.9877 22.5517 85.6117 22.179C86.2357 21.7977 86.734 21.2863 87.1067 20.645C87.4793 20.0037 87.6657 19.2887 87.6657 18.5C87.6657 17.7287 87.4793 17.0223 87.1067 16.381C86.7427 15.7397 86.2487 15.2283 85.6247 14.847C85.0007 14.4657 84.3117 14.275 83.5577 14.275ZM95.2445 31.5H92.5405V12H95.2445V13.911C95.6778 13.2437 96.2325 12.702 96.9085 12.286C97.5845 11.87 98.3818 11.662 99.3005 11.662C100.245 11.662 101.129 11.8397 101.952 12.195C102.784 12.5503 103.512 13.0443 104.136 13.677C104.76 14.301 105.25 15.0247 105.605 15.848C105.961 16.6713 106.138 17.5553 106.138 18.5C106.138 19.4447 105.961 20.333 105.605 21.165C105.25 21.997 104.76 22.7293 104.136 23.362C103.512 23.986 102.784 24.4757 101.952 24.831C101.129 25.1863 100.245 25.364 99.3005 25.364C98.3818 25.364 97.5845 25.156 96.9085 24.74C96.2325 24.3153 95.6778 23.7737 95.2445 23.115V31.5ZM99.2745 14.275C98.5205 14.275 97.8575 14.4657 97.2855 14.847C96.7135 15.2283 96.2671 15.7397 95.9465 16.381C95.6258 17.0137 95.4655 17.72 95.4655 18.5C95.4655 19.28 95.6258 19.9907 95.9465 20.632C96.2671 21.2733 96.7135 21.7847 97.2855 22.166C97.8575 22.5473 98.5205 22.738 99.2745 22.738C100.02 22.738 100.704 22.5517 101.328 22.179C101.952 21.7977 102.451 21.2863 102.823 20.645C103.196 20.0037 103.382 19.2887 103.382 18.5C103.382 17.7287 103.196 17.0223 102.823 16.381C102.459 15.7397 101.965 15.2283 101.341 14.847C100.717 14.4657 100.028 14.275 99.2745 14.275ZM108.08 25V5.5H110.784V25H108.08ZM119.436 25.338C118.24 25.338 117.148 25.0303 116.16 24.415C115.181 23.7997 114.397 22.9763 113.807 21.945C113.227 20.905 112.936 19.7567 112.936 18.5C112.936 17.5467 113.105 16.6583 113.443 15.835C113.781 15.003 114.245 14.275 114.834 13.651C115.432 13.0183 116.126 12.5243 116.914 12.169C117.703 11.8137 118.544 11.636 119.436 11.636C120.433 11.636 121.347 11.844 122.179 12.26C123.011 12.6673 123.722 13.235 124.311 13.963C124.901 14.6823 125.334 15.5143 125.611 16.459C125.889 17.395 125.971 18.3917 125.858 19.449H115.835C115.948 20.047 116.165 20.5887 116.485 21.074C116.815 21.5507 117.231 21.9277 117.733 22.205C118.245 22.4823 118.812 22.6253 119.436 22.634C120.095 22.634 120.693 22.4693 121.23 22.14C121.776 21.8107 122.223 21.3557 122.569 20.775L125.312 21.412C124.792 22.5647 124.008 23.5093 122.959 24.246C121.911 24.974 120.736 25.338 119.436 25.338ZM115.744 17.382H123.128C123.042 16.758 122.821 16.1947 122.465 15.692C122.119 15.1807 121.681 14.7777 121.152 14.483C120.632 14.1797 120.06 14.028 119.436 14.028C118.821 14.028 118.249 14.1753 117.72 14.47C117.2 14.7647 116.767 15.1677 116.42 15.679C116.082 16.1817 115.857 16.7493 115.744 17.382Z" fill="white"/>
<defs>
<clipPath id="clip0_9350_1050">
<rect width="30" height="30" fill="white" transform="translate(0 1)"/>
</clipPath>
</defs>
</svg>
