<svg width="30" height="30" viewBox="0 0 30 30" fill="none" xmlns="http://www.w3.org/2000/svg">
<g clip-path="url(#clip0_9350_1052)">
<mask id="mask0_9350_1052" style="mask-type:luminance" maskUnits="userSpaceOnUse" x="0" y="0" width="30" height="30">
<path d="M30 0H0V30H30V0Z" fill="white"/>
</mask>
<g mask="url(#mask0_9350_1052)">
<path d="M9.80161 11.8036C9.36355 10.8934 9.16825 9.88538 9.23466 8.87744C9.30108 7.86948 9.62697 6.89583 10.1807 6.05099C10.7344 5.20614 11.4971 4.51881 12.3948 4.0557C13.2925 3.59259 14.2947 3.36944 15.3042 3.40791C16.3135 3.44639 17.2959 3.74519 18.1557 4.27529C19.0156 4.80539 19.7238 5.54879 20.2116 6.43332C20.6994 7.31787 20.9502 8.3135 20.9397 9.32358C20.9292 10.3337 20.6577 11.3239 20.1516 12.1981L15.4236 20.4L16.8411 22.8555L22.2831 13.4296C23.3572 11.5217 23.6355 9.26709 23.0574 7.15532C22.4793 5.04354 21.0915 3.24503 19.1955 2.15022C17.2993 1.05543 15.0478 0.752712 12.9299 1.3078C10.812 1.8629 8.99848 3.23099 7.88311 5.11506C7.29076 6.12728 6.92191 7.25456 6.80136 8.42114C6.68079 9.58772 6.8113 10.7666 7.18411 11.8786C7.56328 11.8311 7.945 11.8071 8.32711 11.8066L9.80161 11.8036Z" fill="white"/>
<path d="M28.8753 16.5738C28.2878 15.5422 27.4836 14.6501 26.5182 13.959C25.553 13.2679 24.4493 12.7941 23.2833 12.5703C23.1354 12.924 22.9656 13.2682 22.7748 13.6008L22.0338 14.8833C23.0451 14.9454 24.0231 15.2688 24.8721 15.8217C25.7211 16.3746 26.4123 17.1384 26.8779 18.0381C27.3437 18.9379 27.5681 19.9432 27.5294 20.9557C27.4905 21.9681 27.1898 22.9533 26.6565 23.8147C26.1233 24.6763 25.3758 25.3848 24.4869 25.8713C23.598 26.3576 22.5983 26.605 21.5852 26.5896C20.5721 26.5741 19.5804 26.2962 18.7068 25.783C17.8332 25.2697 17.1075 24.5388 16.6008 23.6613L11.8804 15.4863H9.04688L14.4739 24.8883C14.6605 25.2091 14.8674 25.5178 15.0933 25.8123L15.1383 25.8708C15.9113 26.8657 16.9028 27.6694 18.036 28.2198C19.1693 28.7703 20.4141 29.0525 21.6738 29.0448C23.1332 29.0447 24.5669 28.6603 25.8306 27.9306C27.0944 27.2008 28.1438 26.1513 28.8735 24.8875C29.6031 23.6236 29.9873 22.1901 29.9874 20.7307C29.9874 19.2714 29.6034 17.8377 28.8738 16.5738H28.8753Z" fill="white"/>
<path d="M13.2206 23.9488C12.6718 24.7844 11.9182 25.4656 11.0316 25.9276C10.1451 26.3894 9.15499 26.6168 8.15571 26.588C7.15642 26.5591 6.18115 26.275 5.32273 25.7626C4.46431 25.2502 3.75132 24.5266 3.25161 23.6608C2.73753 22.7701 2.4669 21.7598 2.46688 20.7313C2.46688 19.7029 2.7375 18.6926 3.25156 17.8019C3.76564 16.9111 4.50504 16.1714 5.39553 15.6569C6.286 15.1424 7.29619 14.8713 8.32461 14.8708H17.785L19.198 12.4168H8.32461C7.22344 12.402 6.1303 12.6061 5.10865 13.0173C4.08702 13.4284 3.15724 14.0385 2.37331 14.8119C1.58938 15.5854 0.966922 16.507 0.542068 17.5229C0.117216 18.539 -0.101562 19.6292 -0.101562 20.7305C-0.101562 21.8318 0.117216 22.9222 0.542068 23.9381C0.966922 24.9542 1.58938 25.8757 2.37331 26.6491C3.15724 27.4226 4.08702 28.0327 5.10865 28.4438C6.1303 28.855 7.22344 29.0591 8.32461 29.0443C9.51567 29.0513 10.694 28.7992 11.778 28.3055C12.8619 27.8119 13.8256 27.0884 14.6021 26.1853C14.3595 25.8719 14.138 25.5427 13.9391 25.1998L13.2206 23.9488Z" fill="white"/>
</g>
</g>
<defs>
<clipPath id="clip0_9350_1052">
<rect width="30" height="30" fill="white"/>
</clipPath>
</defs>
</svg>
